<?xml version="1.0"?>
<svg width="25.083" height="25.022" xmlns="http://www.w3.org/2000/svg" xmlns:svg="http://www.w3.org/2000/svg">
 <g class="layer">
  <title>Layer 1</title>
  <path d="m10.02,22.47l0,2.54l-0.62,-0.5a41.18,41.18 0 0 1 -4.64,-4.54c-3.16,-3.63 -4.76,-6.88 -4.76,-9.67l0,-0.28a10.02,10.02 0 0 1 20.04,0l0,0.28c0,0.24 -0.02,0.47 -0.04,0.71l-1.96,-1.79a8.06,8.06 0 0 0 -16.09,0.8l0,0.28c0.01,4.72 6.09,10.43 8.07,12.17zm6.01,-1.4l2.93,0l0,-2.94l-2.93,0l0,2.94zm-6.01,-15.2a4.15,4.15 0 1 1 -4.15,4.15a4.16,4.16 0 0 1 4.15,-4.15zm0,1.95a2.2,2.2 0 1 0 2.2,2.2a2.2,2.2 0 0 0 -2.2,-2.2zm13.75,11.91l-0.55,-0.5l0,3.14a2.65,2.65 0 0 1 -2.65,2.65l-6.19,0a2.65,2.65 0 0 1 -2.65,-2.65l0,-3.14l-0.55,0.5l-1.32,-1.44l7.61,-6.94l7.61,6.94l-1.31,1.44zm-2.5,-2.28l-3.79,-3.46l-3.79,3.46l0,4.92a0.7,0.7 0 0 0 0.7,0.7l6.18,0a0.7,0.7 0 0 0 0.7,-0.7l0,-4.92zm0,0" fill="#ff7f00" id="address"/>
 </g>
</svg>