<?xml version="1.0" encoding="utf-8"?>
<!-- Generator: Adobe Illustrator 22.0.1, SVG Export Plug-In . SVG Version: 6.00 Build 0)  -->
<svg version="1.1" id="Layer_1" xmlns="http://www.w3.org/2000/svg" xmlns:xlink="http://www.w3.org/1999/xlink" x="0px" y="0px"
	 viewBox="0 0 496 496" style="enable-background:new 0 0 496 496;" xml:space="preserve">
<style type="text/css">
	.st0{fill:#FFFFFF;}
</style>
<g>
	<g>
		<g>
			<path class="st0" d="M464,432h-56c-8.8,0-16-7.2-16-16s7.2-16,16-16h32c17.6,0,32-14.4,32-32s-14.4-32-32-32H320v-32h16v-16h-16
				V160h16v-16h-16V16h16V0H0v16h16v128H0v16h16v128H0v16h16v128H0v16h88.8c3.7,18.2,19.9,32,39.2,32h57.4c3.3,9.3,12.2,16,22.6,16
				h256c17.6,0,32-14.4,32-32S481.6,432,464,432z M32,16h272v128H192.9L168,105.2L143.1,144H32V16z M235.3,209.9L203.2,160H304v128
				h-62.7c4.3-9.8,6.7-20.6,6.7-32v-2.8C248,237.8,243.6,222.8,235.3,209.9z M232,253.2v2.8c0,35.3-28.7,64-64,64s-64-28.7-64-64
				v-2.8c0-12.3,3.5-24.3,10.2-34.6l53.8-83.7l53.8,83.7C228.5,228.9,232,240.8,232,253.2z M32,160h100.8l-32.1,49.9
				C92.4,222.8,88,237.8,88,253.2v2.8c0,11.4,2.4,22.2,6.7,32H32V160z M32,432V304h72v-0.2c14.6,19.5,37.8,32.2,64,32.2
				s49.4-12.7,64-32.2v0.2h72v128H32z M464,480H208c-4.4,0-8-3.6-8-8v-8h-72c-10.4,0-19.2-6.7-22.5-16H336v-16h-16v-80h120
				c8.8,0,16,7.2,16,16s-7.2,16-16,16h-32c-17.6,0-32,14.4-32,32s14.4,32,32,32h56c8.8,0,16,7.2,16,16S472.8,480,464,480z"/>
			<rect x="336" y="368" class="st0" width="16" height="16"/>
			<rect x="336" y="400" class="st0" width="16" height="16"/>
			<rect x="272" y="400" class="st0" width="16" height="16"/>
			<rect x="240" y="400" class="st0" width="16" height="16"/>
		</g>
	</g>
</g>
</svg>
