<?xml version="1.0" encoding="utf-8"?>
<!-- Generator: Adobe Illustrator 22.0.1, SVG Export Plug-In . SVG Version: 6.00 Build 0)  -->
<svg version="1.1" id="Layer_1" xmlns="http://www.w3.org/2000/svg" xmlns:xlink="http://www.w3.org/1999/xlink" x="0px" y="0px"
	 viewBox="0 0 496 496" style="enable-background:new 0 0 496 496;" xml:space="preserve">
<style type="text/css">
	.st0{fill:#FFFFFF;}
</style>
<g>
	<g>
		<g>
			<rect x="480" y="477.4" class="st0" width="16" height="16"/>
			<path class="st0" d="M392,413.4h-67.6l-22.1-136H320v-48h-25.6l-13-80H296v-48h-14.1c4-6.3,6.1-14.4,6.1-24
				c0-54.4-43.4-70.8-45.3-71.5l-9.1-3.3l-1.6,9.5c-2.6,15.9-7.7,23.3-12.6,30.5c-5.7,8.3-11.5,16.9-11.5,34.8
				c0,9.8,1.9,17.8,5.5,24H200v48h14.6l-13,80H176v48h17.8l-22.1,136H104v64H0v16h464v-16h-72V413.4z M161.2,477.4H120v-48h49
				L161.2,477.4z M232.7,51.6c4.2-6.2,9.3-13.6,12.8-26.2c10.3,6.8,26.4,22.3,26.4,52c0,16.8-7.2,24-24,24c-12.6,0-24-1.8-24-24
				C224,64.4,227.7,59.1,232.7,51.6z M216,117.4h64v16h-64V117.4z M265.9,189.2l-46.7,31.3l9.4-57.9L265.9,189.2z M237.8,149.4h27.4
				l3.6,22.2L237.8,149.4z M273.9,203.1l4.3,26.3h-43.5L273.9,203.1z M192,261.4v-16h112v16H192z M296.5,341.5l-83.4-64.1H286
				L296.5,341.5z M207.4,293.2l88.5,68.1l-112.1,77.1L207.4,293.2z M177.4,477.4l2.9-17.7l0.2,0.3l121.6-83.6l16.4,101H177.4z
				 M376,477.4h-41.2l-7.8-48h49V477.4z"/>
			<rect x="344" y="445.4" class="st0" width="16" height="16"/>
			<rect x="136" y="445.4" class="st0" width="16" height="16"/>
		</g>
	</g>
</g>
</svg>
