<?xml version="1.0" encoding="utf-8"?>
<!-- Generator: Adobe Illustrator 22.0.1, SVG Export Plug-In . SVG Version: 6.00 Build 0)  -->
<svg version="1.1" id="Layer_1" xmlns="http://www.w3.org/2000/svg" xmlns:xlink="http://www.w3.org/1999/xlink" x="0px" y="0px"
	 viewBox="0 0 496 496" style="enable-background:new 0 0 496 496;" xml:space="preserve">
<style type="text/css">
	.st0{fill:#FFFFFF;}
</style>
<g>
	<g>
		<g>
			<path class="st0" d="M448,480c-17.6,0-32-14.4-32-32h-16c0,17.6-14.4,32-32,32s-32-14.4-32-32h-16c0,17.6-14.4,32-32,32
				s-32-14.4-32-32h-16c0,17.6-14.4,32-32,32s-32-14.4-32-32h-16c0,17.6-14.4,32-32,32s-32-14.4-32-32H80c0,17.6-14.4,32-32,32
				s-32-14.4-32-32H0c0,26.5,21.5,48,48,48c16.7,0,31.4-8.5,40-21.5c8.6,13,23.3,21.5,40,21.5s31.4-8.5,40-21.5
				c8.6,13,23.3,21.5,40,21.5s31.4-8.5,40-21.5c8.6,13,23.3,21.5,40,21.5s31.4-8.5,40-21.5c8.6,13,23.3,21.5,40,21.5
				s31.4-8.5,40-21.5c8.6,13,23.3,21.5,40,21.5c26.5,0,48-21.5,48-48h-16C480,465.6,465.6,480,448,480z"/>
			<path class="st0" d="M481,224.3c9.8-14.3,15-31,15-48.3v-8H372.7l-40,40H240v-80h-80V96h16V80h-64V48H96v32H80V0H64v80H0v16h16
				v112H0v216v8v8h8c16.7,0,31.4-8.5,40-21.5c8.6,13,23.3,21.5,40,21.5s31.4-8.5,40-21.5c8.6,13,23.3,21.5,40,21.5s31.4-8.5,40-21.5
				c8.6,13,23.3,21.5,40,21.5s31.4-8.5,40-21.5c8.6,13,23.3,21.5,40,21.5s31.4-8.5,40-21.5c8.6,13,23.3,21.5,40,21.5
				s31.4-8.5,40-21.5c8.6,13,23.3,21.5,40,21.5h8v-16h-8c-8.1,0-15.5-3.1-21.1-8.2c8.5-10.9,13.1-24.2,13.1-38.2
				c0-23.8-13.2-45.2-34.5-55.8l-2.2-1.1c-7-3.5-11.4-10.6-11.5-18.4c0-4.3,1.2-8.5,3.7-12L481,224.3z M160,144h64v64h-64V144z
				 M32,96h112v112H32V96z M56,312l360.8-1.6c2.4,10.6,9.4,19.6,19.3,24.6l2.2,1.1c15.8,7.9,25.6,23.8,25.6,41.5
				c0,8.4-2.4,16.4-6.5,23.4c-0.9-2.9-1.5-5.9-1.5-9h-16c0,17.6-14.4,32-32,32s-32-14.4-32-32h-16c0,17.6-14.4,32-32,32
				s-32-14.4-32-32h-16c0,17.6-14.4,32-32,32s-32-14.4-32-32h-16c0,17.6-14.4,32-32,32s-32-14.4-32-32h-16c0,17.6-14.4,32-32,32
				s-32-14.4-32-32H40c0,14.9-10.2,27.3-24,30.9V312h24v-16H16v-72h323.3l40-40h100.2c-1.3,11.2-5.3,21.8-11.7,31.2l-45.5,66
				c-2.8,4-4.6,8.5-5.6,13.2L56,296L56,312z"/>
			<rect x="48" y="112" class="st0" width="16" height="16"/>
			<rect x="80" y="112" class="st0" width="16" height="16"/>
			<rect x="112" y="112" class="st0" width="16" height="16"/>
		</g>
	</g>
</g>
</svg>
