<?xml version="1.0" encoding="utf-8"?>
<!-- Generator: Adobe Illustrator 22.0.1, SVG Export Plug-In . SVG Version: 6.00 Build 0)  -->
<svg version="1.1" id="Layer_1" xmlns="http://www.w3.org/2000/svg" xmlns:xlink="http://www.w3.org/1999/xlink" x="0px" y="0px"
	 viewBox="0 0 496 496" style="enable-background:new 0 0 496 496;" xml:space="preserve">
<style type="text/css">
	.st0{fill:#FFFFFF;}
</style>
<g>
	<g>
		<g>
			<path class="st0" d="M240,272c0-13.2-10.8-24-24-24h-80c-13.2,0-24,10.8-24,24v80c0,13.2,10.8,24,24,24h80c13.2,0,24-10.8,24-24
				V272z M224,352c0,4.4-3.6,8-8,8h-80c-4.4,0-8-3.6-8-8v-80c0-4.4,3.6-8,8-8h80c4.4,0,8,3.6,8,8V352z"/>
			
				<rect x="268" y="362.1" transform="matrix(0.7433 -0.669 0.669 0.7433 -207.3947 291.42)" class="st0" width="16" height="107.6"/>
			
				<rect x="22.2" y="408" transform="matrix(0.669 -0.7432 0.7432 0.669 -284.0517 194.1482)" class="st0" width="107.6" height="16"/>
			
				<rect x="225.4" y="208" transform="matrix(0.6585 -0.7526 0.7526 0.6585 -71.0639 275.4458)" class="st0" width="85" height="16"/>
			
				<rect x="68" y="154.2" transform="matrix(0.7433 -0.669 0.669 0.7433 -119.6384 104.2428)" class="st0" width="16" height="107.6"/>
			<path class="st0" d="M472,0H371.1c-14.7,0-28.2,8.1-35.2,21L291.2,104l-15.9-7.2l-6.6,14.6l8.7,4l-8.8,17.7l-8-3.6L211.3,80H83.8
				H72H40C17.9,80,0,97.9,0,120v336c0,22.1,17.9,40,40,40h272c22.1,0,40-17.9,40-40V170.8l-13.4-6.1l8.8-17.7l9.3,4.2l6.6-14.6
				l-15.9-7.2l29.8-71.6c2.5-6,8.3-9.8,14.8-9.8h80V0z M292,121.9l40.8,18.6l-8.8,17.7l-40.8-18.6L292,121.9z M204.7,96l32,32H123.8
				L97.1,96H204.7z M336,456c0,13.2-10.8,24-24,24H40c-13.2,0-24-10.8-24-24V120c0-13.2,10.8-24,24-24h32h4.2l40,48h138l81.7,37.2
				V456z M392,32c-13,0-24.6,7.7-29.5,19.7l-29.6,71.2l-27-12.3l44.1-82c4.2-7.8,12.3-12.6,21.1-12.6H392V32z M424,32h-16V16h16V32z
				 M456,32h-16V16h16V32z"/>
			<rect x="248" y="448" class="st0" width="16" height="16"/>
			<rect x="168" y="448" class="st0" width="64" height="16"/>
			<path class="st0" d="M489.6,116.8L464,82.7l-25.6,34.1c-4.1,5.5-6.4,12.3-6.4,19.2c0,17.6,14.4,32,32,32s32-14.4,32-32
				C496,129.1,493.7,122.3,489.6,116.8z M464,152c-8.8,0-16-7.2-16-16c0-3.4,1.1-6.8,3.2-9.6l12.8-17.1l12.8,17.1
				c2.1,2.8,3.2,6.2,3.2,9.6C480,144.8,472.8,152,464,152z"/>
			<path class="st0" d="M432,186.7l-25.6,34.1c-4.1,5.5-6.4,12.3-6.4,19.2c0,17.6,14.4,32,32,32s32-14.4,32-32
				c0-6.9-2.3-13.7-6.4-19.2L432,186.7z M432,256c-8.8,0-16-7.2-16-16c0-3.4,1.1-6.8,3.2-9.6l12.8-17.1l12.8,17.1
				c2.1,2.8,3.2,6.2,3.2,9.6C448,248.8,440.8,256,432,256z"/>
		</g>
	</g>
</g>
</svg>
