<?xml version="1.0"?>
<svg width="25.014" height="25.014" xmlns="http://www.w3.org/2000/svg" xmlns:svg="http://www.w3.org/2000/svg" data-name="Group 21">
 <g class="layer">
  <title>Layer 1</title>
  <g data-name="Group 20" id="Group_20">
   <path d="m5.86,9.92l-1.93,0a8.6,8.6 0 0 1 16.64,-2.35a0.98,0.98 0 0 0 1.84,-0.68a10.55,10.55 0 0 0 -20.45,3.55a3.91,3.91 0 0 0 -1.96,3.39l0,3.32a3.91,3.91 0 0 0 3.91,3.91l1.95,0a0.98,0.98 0 0 0 0.98,-0.98l0,-9.19a0.98,0.98 0 0 0 -0.98,-0.97zm-0.98,9.18l-0.97,0a1.96,1.96 0 0 1 -1.96,-1.95l0,-3.32a1.96,1.96 0 0 1 1.96,-1.96l0.97,0l0,7.23z" data-name="Path 354" fill="#ff7f00" id="Path_354"/>
   <path d="m226.55,203l-1.95,0a0.98,0.98 0 0 0 -0.98,0.98l0,10.21a0.98,0.98 0 0 1 -0.97,0.98l-2.98,0l0,0.03a1.95,1.95 0 1 0 0,1.89l0,0.03l2.98,0a2.94,2.94 0 0 0 2.93,-2.93l0,-0.05l0.97,0a3.91,3.91 0 0 0 3.91,-3.91l0,-3.32a3.91,3.91 0 0 0 -3.91,-3.91zm1.96,7.23a1.96,1.96 0 0 1 -1.96,1.96l-0.97,0l0,-7.24l0.97,0a1.96,1.96 0 0 1 1.96,1.96l0,3.32z" data-name="Path 355" fill="#ff7f00" id="Path_355" transform="translate(-205.447 -193.082)"/>
  </g>
 </g>
</svg>