<?xml version="1.0" standalone="no"?>
<!DOCTYPE svg PUBLIC "-//W3C//DTD SVG 1.0//EN" "http://www.w3.org/TR/2001/REC-SVG-20010904/DTD/svg10.dtd">
<svg id="1" data-name="https://www.flaticon.com/free-icon/verified_907830#term=check&page=1&position=15" xmlns="http://www.w3.org/2000/svg" width="16.075" height="16.075" viewBox="0 0 16.075 16.075" xmlns:inkscape ="http://www.inkscape.org/namespaces/inkscape" >
<desc>CopyRight:SVG Design Editor;
configurationStart;Unit=smInches;Dpi=96;Division=4;Grid=True;Zoom=1;CanvasW=16.075;CanvasH=16.075;configurationEnd;</desc>
<g inkscape:label = "check2 Default Layer" inkscape:groupmode = "layer" ><g id="group_2">
<g id="group_3">
<path style="fill:#FF3414;stroke:none; stroke-width:1" d="m13.72,2.35a8.037 8.037,0 0,0 -11.37,11.37a8.037 8.037,0 1,0 11.37,-11.37zm-5.68,12.78a7.1 7.1,0 1,1 7.1,-7.1a7.1 7.1,0 0,1 -7.1,7.1z" id = "4" data-name = "Path 42" transform = "matrix(1,0,0,1,0,0)" vector-effect="non-scaling-stroke" pen = "1,1" />
</g>
</g>
<g id="group_5">
<g id="group_6">
<path style="fill:#FF3414;stroke:none; stroke-width:1" d="m137.12,169.6a0.471 0.471,0 0,0 -0.67,0l-4.16,4.16l-2.19,-2.19a0.471 0.471,0 1,0 -0.67,0.67l2.52,2.52a0.471 0.471,0 0,0 0.67,0l4.49,-4.49a0.471 0.471,0 0,0 0,-0.67z" id = "7" data-name = "Path 43" transform = "matrix(1,0,0,1,-125.241,-164.146)" vector-effect="non-scaling-stroke" pen = "1,1" />
</g>
</g>
</g>
</svg>
