<?xml version="1.0" encoding="iso-8859-1"?>
<!-- Generator: Adobe Illustrator 19.0.0, SVG Export Plug-In . SVG Version: 6.00 Build 0)  -->
<svg xmlns="http://www.w3.org/2000/svg" xmlns:xlink="http://www.w3.org/1999/xlink" version="1.1" id="Layer_1" x="0px" y="0px" viewBox="0 0 496 496" style="enable-background:new 0 0 496 496;" xml:space="preserve" width="512px" height="512px">
<g>
	<g>
		<g>
			<path d="M496,16V0H0v16h192v17.752L167.016,40H0v16h168.984L201,48h23v16h-48v65.12c-37.584,5.864-68.224,35.864-73.736,74.44     l-0.632,4.44H72v-32H56v64h16v-16h27.344l-2.464,17.232c-0.584,4.088-0.88,8.272-0.88,12.456V328     c0,24.024,11.872,45.28,30.008,58.368C97.504,393.744,75.8,418.096,72.472,448H48c-13.232,0-24,10.768-24,24s10.768,24,24,24h40     v-40c0-30.872,25.128-56,56-56h24h48.208c-5.08,6.704-8.208,14.96-8.208,24c0,22.056,17.944,40,40,40c22.056,0,40-17.944,40-40     c0-9.04-3.128-17.296-8.208-24H328h24c30.872,0,56,25.128,56,56v40h40c13.232,0,24-10.768,24-24s-10.768-24-24-24h-24.472     c-3.32-29.904-25.032-54.256-53.536-61.632C388.128,373.28,400,352.024,400,328v-74.312c0-4.176-0.296-8.368-0.88-12.448     L396.656,224H424v16h16v-64h-16v32h-29.632l-0.632-4.448c-5.512-38.576-36.152-68.576-73.736-74.44V64h-48V48h23.008l31.056,7.76     L496,56V40H328.984L304,33.752V16H496z M72,480H48c-4.416,0-8-3.584-8-8c0-4.416,3.584-8,8-8h24V480z M424,464h24     c4.416,0,8,3.584,8,8c0,4.416-3.584,8-8,8h-24V464z M112,253.688c0-3.424,0.24-6.84,0.728-10.176l5.384-37.688     c5.032-35.248,35.68-61.824,71.272-61.824H224v87.016c0,11.032-7.48,20.608-18.176,23.288L112,277.76V253.688z M248,448     c-13.232,0-24-10.768-24-24s10.768-24,24-24s24,10.768,24,24S261.232,448,248,448z M328,384h-40v-16h-16v16h-16v-16h-16v16h-16     v-16h-16v16h-40c-28.792,0-52.568-21.856-55.64-49.848l106.056-26.512c19.344-4.832,39.832-4.832,59.168,0l106.056,26.512     C380.568,362.144,356.792,384,328,384z M384,317.752L281.464,292.12c-21.872-5.472-45.048-5.472-66.92,0L112,317.76v-23.52     l97.696-24.424c17.84-4.456,30.304-20.408,30.304-38.8V144h16v87.016c0,18.392,12.464,34.344,30.304,38.808L384,294.24V317.752z      M377.888,205.824l5.384,37.696c0.488,3.32,0.728,6.744,0.728,10.168v24.072l-93.824-23.456     C279.48,251.624,272,242.048,272,231.016V144h34.616C342.208,144,372.856,170.576,377.888,205.824z M288,96V80h16v48H192V80h16     v16h16V80h16v16h16V80h16v16H288z M240,64V48h16v16H240z M288,32h-80V16h80V32z" fill="#FFFFFF"/>
			<rect x="240" y="416" width="16" height="16" fill="#FFFFFF"/>
		</g>
	</g>
</g>
<g>
</g>
<g>
</g>
<g>
</g>
<g>
</g>
<g>
</g>
<g>
</g>
<g>
</g>
<g>
</g>
<g>
</g>
<g>
</g>
<g>
</g>
<g>
</g>
<g>
</g>
<g>
</g>
<g>
</g>
</svg>
