<?xml version="1.0" encoding="utf-8"?>
<!-- Generator: Adobe Illustrator 22.0.1, SVG Export Plug-In . SVG Version: 6.00 Build 0)  -->
<svg version="1.1" id="Layer_1" xmlns="http://www.w3.org/2000/svg" xmlns:xlink="http://www.w3.org/1999/xlink" x="0px" y="0px"
	 viewBox="0 0 496 496" style="enable-background:new 0 0 496 496;" xml:space="preserve">
<style type="text/css">
	.st0{fill:#FFFFFF;}
</style>
<g>
	<g>
		<g>
			<path class="st0" d="M448,352.9L407.3,418c-4.8,7.6-7.3,16.4-7.3,25.4v4.5c0,26.5,21.5,48,48,48s48-21.5,48-48v-4.5
				c0-9-2.5-17.8-7.3-25.4L448,352.9z M480,448c0,17.6-14.4,32-32,32s-32-14.4-32-32v-4.5c0-6,1.7-11.9,4.9-17l27.1-43.4l27.1,43.4
				c3.2,5.1,4.9,10.9,4.9,17V448z"/>
			<path class="st0" d="M320,352.9L279.3,418c-4.8,7.6-7.3,16.4-7.3,25.4v4.5c0,26.5,21.5,48,48,48s48-21.5,48-48v-4.5
				c0-9-2.5-17.8-7.3-25.4L320,352.9z M352,448c0,17.6-14.4,32-32,32s-32-14.4-32-32v-4.5c0-6,1.7-11.9,4.9-17l27.1-43.4l27.1,43.4
				c3.2,5.1,4.9,10.9,4.9,17V448z"/>
			<path class="st0" d="M176,352.9L135.3,418c-4.8,7.6-7.3,16.4-7.3,25.4v4.5c0,26.5,21.5,48,48,48s48-21.5,48-48v-4.5
				c0-9-2.5-17.8-7.3-25.4L176,352.9z M208,448c0,17.6-14.4,32-32,32s-32-14.4-32-32v-4.5c0-6,1.7-11.9,4.9-17l27.1-43.4l27.1,43.4
				c3.2,5.1,4.9,10.9,4.9,17V448z"/>
			<path class="st0" d="M48,352.9L7.3,418C2.5,425.7,0,434.5,0,443.5v4.5c0,26.5,21.5,48,48,48s48-21.5,48-48v-4.5
				c0-9-2.5-17.8-7.3-25.4L48,352.9z M80,448c0,17.6-14.4,32-32,32s-32-14.4-32-32v-4.5c0-6,1.7-11.9,4.9-17L48,383.1l27.1,43.4
				c3.2,5.1,4.9,10.9,4.9,17V448z"/>
			<path class="st0" d="M464,320H256v-18.6l33.5-13.4H336c30.9,0,56-25.1,56-56v-8h-56c-29,0-52.9,22.2-55.7,50.5l-24.3,9.7V174.9
				c9.2-2.4,16.8-8.8,20.8-17.2c3.5,1.2,7.1,2,10.8,2c8.2,0,16.4-3.1,22.6-9.4c9-9,11.4-22.1,7.4-33.4c10.8-5.1,18.4-16.1,18.4-28.8
				s-7.6-23.7-18.4-28.8c4-11.3,1.6-24.4-7.4-33.4s-22.1-11.4-33.4-7.4C271.7,7.6,260.8,0,248,0s-23.7,7.6-28.8,18.4
				c-11.3-4-24.4-1.6-33.4,7.4s-11.4,22.1-7.4,33.4C167.6,64.3,160,75.2,160,88s7.6,23.7,18.4,28.8c-4,11.3-1.6,24.4,7.4,33.4
				c6.2,6.2,14.4,9.4,22.6,9.4c3.7,0,7.3-0.7,10.8-2c4,8.5,11.6,14.8,20.8,17.2v53.3l-24.3-9.7C212.9,190.2,189,168,160,168h-56v8
				c0,30.9,25.1,56,56,56h46.5l33.5,13.4V320H0v16h240v56h16v-56h208V320z M336,240h39.2c-3.7,18.2-19.9,32-39.2,32h-39.2
				C300.5,253.8,316.7,240,336,240z M298.9,138.9c-5.1,5.1-12.8,6-18.9,2.7V120h21.6C304.9,126.1,304,133.8,298.9,138.9z M280,34.4
				c6.1-3.3,13.8-2.4,18.9,2.7s6,12.8,2.7,18.9H280V34.4z M275.6,72H304c8.8,0,16,7.2,16,16s-7.2,16-16,16h-28.4
				c2.8-4.7,4.4-10.1,4.4-16S278.3,76.7,275.6,72z M197.1,37.1c5.1-5.1,12.8-6,18.9-2.7V56h-21.6C191.1,49.9,192,42.2,197.1,37.1z
				 M216,141.6c-6.1,3.3-13.8,2.4-18.9-2.7s-6-12.8-2.7-18.9H216V141.6z M220.4,104H192c-8.8,0-16-7.2-16-16s7.2-16,16-16h28.4
				c-2.8,4.7-4.4,10.1-4.4,16S217.7,99.3,220.4,104z M160,216c-19.3,0-35.5-13.8-39.2-32H160c19.3,0,35.5,13.8,39.2,32H160z M232,32
				c0-8.8,7.2-16,16-16s16,7.2,16,16v28.4c-4.7-2.8-10.1-4.4-16-4.4s-11.3,1.7-16,4.4V32z M248,72c8.8,0,16,7.2,16,16s-7.2,16-16,16
				s-16-7.2-16-16S239.2,72,248,72z M248,160c-8.8,0-16-7.2-16-16v-28.4c4.7,2.8,10.1,4.4,16,4.4s11.3-1.7,16-4.4V144
				C264,152.8,256.8,160,248,160z"/>
			<rect x="480" y="320" class="st0" width="16" height="16"/>
			<rect x="104" y="368" class="st0" width="16" height="16"/>
			<rect x="376" y="368" class="st0" width="16" height="16"/>
		</g>
	</g>
</g>
</svg>
