<?xml version="1.0" encoding="utf-8"?>
<!-- Generator: Adobe Illustrator 22.0.1, SVG Export Plug-In . SVG Version: 6.00 Build 0)  -->
<svg version="1.1" id="Layer_1" xmlns="http://www.w3.org/2000/svg" xmlns:xlink="http://www.w3.org/1999/xlink" x="0px" y="0px"
	 viewBox="0 0 496 496" style="enable-background:new 0 0 496 496;" xml:space="preserve">
<style type="text/css">
	.st0{fill:#FFFFFF;}
</style>
<g>
	<g>
		<g>
			<rect x="480" y="480" class="st0" width="16" height="16"/>
			<path class="st0" d="M440,444c0-28.7-23.3-52-52-52s-52,23.3-52,52c0,14,5.6,26.6,14.6,36H145.4c9-9.4,14.6-22,14.6-36
				c0-28.7-23.3-52-52-52s-52,23.3-52,52c0,14,5.6,26.6,14.6,36H0v16h464v-16h-38.6C434.4,470.6,440,458,440,444z M108,480
				c-19.8,0-36-16.2-36-36s16.2-36,36-36s36,16.2,36,36S127.8,480,108,480z M388,480c-19.8,0-36-16.2-36-36s16.2-36,36-36
				s36,16.2,36,36S407.8,480,388,480z"/>
			<path class="st0" d="M480,328h-59.2c44.7-23.4,75.2-70.2,75.2-124c0-75.8-60.7-137.7-136-139.8V48h16V32h-16h-24.8
				C331.5,13.8,315.3,0,296,0s-35.5,13.8-39.2,32H232h-16v16h16v16h-24V48h-16v16h-40V48h-16v16.2C60.7,66.3,0,128.2,0,204
				c0,53.8,30.6,100.6,75.2,124H16v-16H0v16v16v32h496v-32v-16v-16h-16V328z M296,16c10.4,0,19.2,6.7,22.5,16h-45
				C276.8,22.7,285.6,16,296,16z M248,48h96v16h-96V48z M152,80h40v32h-40V80z M152,128h40v32h-40V128z M152,176h40v32h-40V176z
				 M152,224h40v32h-40V224z M16,204c0-67,53.5-121.7,120-123.8V312h16v-40h40v40h16V80h24h124c68.4,0,124,55.6,124,124
				s-55.6,124-124,124H140C71.6,328,16,272.4,16,204z M480,360H16v-16h124h216h124V360z"/>
			<rect x="232" y="96" class="st0" width="16" height="16"/>
			<rect x="264" y="96" class="st0" width="16" height="16"/>
			<rect x="296" y="96" class="st0" width="16" height="16"/>
			<rect x="328" y="96" class="st0" width="16" height="16"/>
			<rect x="360" y="96" class="st0" width="16" height="16"/>
		</g>
	</g>
</g>
</svg>
