<?xml version="1.0" encoding="utf-8"?>
<!-- Generator: Adobe Illustrator 22.0.1, SVG Export Plug-In . SVG Version: 6.00 Build 0)  -->
<svg version="1.1" id="Layer_1" xmlns="http://www.w3.org/2000/svg" xmlns:xlink="http://www.w3.org/1999/xlink" x="0px" y="0px"
	 viewBox="0 0 246 247" style="enable-background:new 0 0 246 247;" xml:space="preserve">
<style type="text/css">
	.st0{fill:#FFFFFF;}
	.st1{fill:#006838;}
	.st2{fill:#E6E7E8;}
	.st3{fill:#ED1C24;}
</style>
<circle id="XMLID_23_" cx="123" cy="123" r="123"/>
<g id="XMLID_22_">
	<path id="XMLID_30_" class="st0" d="M39.1,193.7l1.5,2.5c-1.5,0.9-3,1.3-4.7,1s-3-1.1-4.1-2.6c-1-1.3-1.4-2.5-1.4-3.8
		c0-1.3,0.4-2.5,1.2-3.8c0.8-1.3,1.8-2.4,3.1-3.4c2.1-1.6,4.2-2.4,6.3-2.5c2.1,0,3.8,0.8,5.2,2.6c1.1,1.4,1.5,2.8,1.4,4.4
		s-0.9,3.1-2.3,4.5l-2-2.1c1.8-2,2.1-3.8,1-5.2c-0.7-0.9-1.7-1.3-3-1.2c-1.3,0.2-2.7,0.9-4.4,2.1c-1.7,1.3-2.7,2.5-3.2,3.8
		c-0.4,1.2-0.3,2.3,0.4,3.2c0.6,0.7,1.3,1.1,2.3,1.2C37.4,194.4,38.3,194.2,39.1,193.7z"/>
	<path id="XMLID_32_" class="st0" d="M48.7,212.1l-2.4-2.3l1.9-4l-4.8-4.7l-3.9,2l-1.9-1.9l16.3-8.5l2.8,2.7L48.7,212.1z
		 M49.3,203.4l3.6-7.4l-7.2,3.8L49.3,203.4z"/>
	<path id="XMLID_35_" class="st0" d="M54.3,216.3l-2.6-1.8l10.1-14.2l5.8,4.1c1.7,1.2,2.6,2.5,2.8,3.9s-0.1,2.7-0.9,3.8
		c-0.9,1.3-2.1,2-3.5,2.2c-1.4,0.2-2.8-0.2-4.2-1.1l-3.6-2.5L54.3,216.3z M59.9,208.4l3,2.2c0.8,0.6,1.5,0.8,2.2,0.7
		c0.7-0.1,1.3-0.5,1.7-1.1c0.4-0.6,0.6-1.2,0.5-1.9c-0.1-0.7-0.6-1.4-1.6-2.1l-2.8-2L59.9,208.4z"/>
	<path id="XMLID_38_" class="st0" d="M68.5,225.3l-2.7-1.5l8.5-15.2l2.7,1.5L68.5,225.3z"/>
	<path id="XMLID_40_" class="st0" d="M78.5,230.1l-3.1-1.4l5.9-13.5l-4.2-1.9l1.1-2.5l11.6,5.1l-1.1,2.5l-4.3-1.9L78.5,230.1z"/>
	<path id="XMLID_42_" class="st0" d="M97.7,236.5l-3.2-1l-0.2-4.4l-6.4-1.9l-2.5,3.6l-2.6-0.8L93.3,217l3.7,1.1L97.7,236.5z
		 M94.2,228.5l-0.2-8.2l-4.6,6.7L94.2,228.5z"/>
	<path id="XMLID_45_" class="st0" d="M112,238.6l-10.6-1.6l2.6-17.3l3.3,0.5l-2.2,14.4l7.3,1.1L112,238.6z"/>
	<path id="XMLID_47_" class="st0" d="M126.2,239l-3.1,0.2l-0.9-17.4l7.1-0.4c2-0.1,3.6,0.3,4.6,1.3c1,1,1.6,2.2,1.7,3.6
		c0.1,1.6-0.4,2.9-1.4,3.9c-1,1-2.3,1.6-4,1.7l-4.4,0.2L126.2,239z M125.7,229.4l3.7-0.2c1-0.1,1.7-0.3,2.2-0.8
		c0.5-0.5,0.7-1.1,0.7-1.9c0-0.7-0.3-1.3-0.8-1.8s-1.4-0.7-2.6-0.6l-3.4,0.2L125.7,229.4z"/>
	<path id="XMLID_50_" class="st0" d="M152.6,235.4l-3.3,0.6l-2.2-3.8l-6.6,1.3l-0.6,4.3l-2.6,0.5l2.4-18.2l3.8-0.7L152.6,235.4z
		 M145.8,229.9l-4-7.2l-1,8.1L145.8,229.9z"/>
	<path id="XMLID_53_" class="st0" d="M162.8,225.5l2.9-0.7c0.4,1.7,0.2,3.3-0.5,4.7c-0.7,1.4-2,2.5-3.8,3.1
		c-1.5,0.5-2.9,0.6-4.1,0.1s-2.3-1.2-3.2-2.3c-1-1.1-1.7-2.5-2.3-4c-0.9-2.5-1-4.8-0.4-6.7c0.6-2,2-3.3,4.1-4.1
		c1.6-0.6,3.2-0.5,4.6,0.1s2.6,1.8,3.6,3.6l-2.6,1.3c-1.4-2.3-2.9-3.2-4.7-2.6c-1.1,0.4-1.8,1.2-2,2.5c-0.3,1.2,0,2.9,0.6,4.8
		c0.7,2,1.6,3.4,2.6,4.2s2.1,1,3.2,0.6c0.9-0.3,1.5-0.9,1.9-1.8S163.1,226.5,162.8,225.5z"/>
	<path id="XMLID_55_" class="st0" d="M165.5,205.7l1.6,1.4l-3.8,4.3l-1.1-1L165.5,205.7z M173.7,227.3l-2.8,1.3l-7.5-15.8l2.8-1.4
		L173.7,227.3z"/>
	<path id="XMLID_58_" class="st0" d="M180.9,223.4l-2.8,1.7l-9-15l9.5-5.7l1.4,2.3l-6.7,4l2.5,4.1l5.3-3.2l1.4,2.2l-5.3,3.2
		L180.9,223.4z"/>
	<path id="XMLID_60_" class="st0" d="M192.8,215.4l-2.5,1.9l-10.4-14l2.5-1.9L192.8,215.4z"/>
	<path id="XMLID_62_" class="st0" d="M199.8,201.3l2.4-1.7c1,1.4,1.5,2.9,1.4,4.5c-0.1,1.6-0.8,3.1-2.2,4.4
		c-1.2,1.1-2.4,1.7-3.7,1.7c-1.3,0.1-2.6-0.2-3.9-0.8s-2.5-1.6-3.7-2.8c-1.8-2-2.8-4-3-6.1c-0.2-2.1,0.5-3.9,2.1-5.4
		c1.3-1.2,2.7-1.8,4.3-1.8c1.6,0,3.1,0.6,4.7,1.9l-1.9,2.2c-2.2-1.6-3.9-1.7-5.3-0.5c-0.9,0.8-1.2,1.8-0.9,3.1
		c0.3,1.2,1.1,2.6,2.5,4.2c1.4,1.6,2.8,2.5,4,2.8c1.2,0.3,2.3,0.1,3.1-0.7c0.7-0.6,1-1.4,1-2.4C200.8,203,200.5,202.1,199.8,201.3z"
		/>
	<path id="XMLID_64_" class="st0" d="M213.2,195.8c-1.4,1.8-3.2,2.7-5.4,2.6s-4.2-0.9-6.2-2.5c-2-1.6-3.2-3.4-3.7-5.6
		c-0.5-2.1,0-4.1,1.4-5.8c1.4-1.8,3.2-2.6,5.4-2.6c2.2,0,4.2,0.9,6.2,2.4c2.1,1.7,3.4,3.6,3.8,5.7
		C215,192.1,214.6,194.1,213.2,195.8z M211.2,194.2c0.7-0.9,0.9-1.9,0.7-3.1c-0.2-1.2-1.3-2.6-3.3-4.1c-1.6-1.2-3-2-4.3-2.2
		c-1.3-0.2-2.4,0.2-3.2,1.3c-1.7,2.1-0.8,4.5,2.6,7.2c1.6,1.3,3.1,2,4.4,2.2S210.4,195.2,211.2,194.2z"/>
</g>
<g id="XMLID_21_">
	<path id="XMLID_25_" class="st0" d="M120.2,25.9l-10.7,0.8l-1.3-17.4l3.3-0.3l1.1,14.6L120,23L120.2,25.9z"/>
	<path id="XMLID_27_" class="st0" d="M138.1,26.8l-3.3-0.2l-2.2-7.3l-4.4-0.3l-0.5,7.2l-3.1-0.2l1.2-17.4l7.5,0.5
		c2.1,0.1,3.6,0.7,4.5,1.7s1.3,2.3,1.2,3.8c-0.2,2.2-1.3,3.7-3.5,4.4L138.1,26.8z M128.3,16.4l3.9,0.3c1.1,0.1,2-0.1,2.6-0.5
		c0.6-0.4,0.9-1.1,1-1.9c0.1-0.8-0.2-1.4-0.7-1.9c-0.5-0.5-1.3-0.8-2.2-0.9l-4.2-0.3L128.3,16.4z"/>
</g>
<circle id="XMLID_20_" class="st0" cx="123" cy="123" r="88.7"/>
<g id="XMLID_15_">
	<path id="XMLID_19_" d="M170.8,179.1l-4.5-19.1c-0.2-1-1.2-1.8-2.2-1.8H81.9c-1.1,0-2,0.7-2.2,1.8l-4.5,19.1
		c-0.3,0.8-0.6,3-0.6,3.3c0,11.5,21.7,20.8,48.4,20.8s48.4-9.3,48.4-20.8C171.4,182.2,171.1,179.9,170.8,179.1z"/>
	<path id="XMLID_18_" class="st1" d="M150,125.2H96c-0.8,0-1.5,0.5-1.7,1.3l-7.7,26.7c-0.2,0.8,0.4,1.7,1.3,1.7h70.2
		c0.9,0,1.6-0.9,1.3-1.8l-7.7-26.7C151.5,125.8,150.8,125.2,150,125.2z"/>
	<path id="XMLID_17_" class="st2" d="M138.1,98.1h-30.2c-0.7,0-1.3,0.4-1.5,1.1l-6.2,21.5c-0.2,0.7,0.3,1.3,1,1.3h43.4
		c0.7,0,1.2-0.7,1-1.4l-6.2-21.4C139.3,98.5,138.8,98.1,138.1,98.1z"/>
	<path id="XMLID_16_" class="st3" d="M130.6,55.1h-5.8c-0.6,0-1.2-0.5-1.2-1.2v-1.4c0-0.5,0.3-0.9,0.7-1.1l10.7-4.2
		c1-0.4,1-1.8,0-2.1l-12.6-5c-0.8-0.3-1.6,0.3-1.6,1.1v11.7l0,0V54c0,0.6-0.5,1.2-1.2,1.2h-4.4c-0.5,0-1,0.3-1.1,0.8l-10.8,37.4
		c-0.2,0.7,0.3,1.5,1.1,1.5h36.7c0.8,0,1.3-0.7,1.1-1.5L131.7,56C131.6,55.5,131.1,55.1,130.6,55.1z"/>
</g>
</svg>
